<svg width="20" height="20" viewBox="0 0 20 20" fill="none" xmlns="http://www.w3.org/2000/svg">
<mask id="mask0_1165_10715" style="mask-type:alpha" maskUnits="userSpaceOnUse" x="0" y="0" width="20" height="20">
<rect width="20" height="20" fill="#D9D9D9"/>
</mask>
<g mask="url(#mask0_1165_10715)">
<path d="M2.88889 16.2222C2.63704 16.2222 2.42593 16.137 2.25556 15.9667C2.08519 15.7963 2 15.5852 2 15.3333C2 15.0815 2.08519 14.8704 2.25556 14.7C2.42593 14.5296 2.63704 14.4444 2.88889 14.4444H6.44444C6.6963 14.4444 6.90741 14.5296 7.07778 14.7C7.24815 14.8704 7.33333 15.0815 7.33333 15.3333C7.33333 15.5852 7.24815 15.7963 7.07778 15.9667C6.90741 16.137 6.6963 16.2222 6.44444 16.2222H2.88889ZM2.88889 5.55556C2.63704 5.55556 2.42593 5.47037 2.25556 5.3C2.08519 5.12963 2 4.91852 2 4.66667C2 4.41481 2.08519 4.2037 2.25556 4.03333C2.42593 3.86296 2.63704 3.77778 2.88889 3.77778H10C10.2519 3.77778 10.463 3.86296 10.6333 4.03333C10.8037 4.2037 10.8889 4.41481 10.8889 4.66667C10.8889 4.91852 10.8037 5.12963 10.6333 5.3C10.463 5.47037 10.2519 5.55556 10 5.55556H2.88889ZM10 18C9.74815 18 9.53704 17.9148 9.36667 17.7444C9.1963 17.5741 9.11111 17.363 9.11111 17.1111V13.5556C9.11111 13.3037 9.1963 13.0926 9.36667 12.9222C9.53704 12.7519 9.74815 12.6667 10 12.6667C10.2519 12.6667 10.463 12.7519 10.6333 12.9222C10.8037 13.0926 10.8889 13.3037 10.8889 13.5556V14.4444H17.1111C17.363 14.4444 17.5741 14.5296 17.7444 14.7C17.9148 14.8704 18 15.0815 18 15.3333C18 15.5852 17.9148 15.7963 17.7444 15.9667C17.5741 16.137 17.363 16.2222 17.1111 16.2222H10.8889V17.1111C10.8889 17.363 10.8037 17.5741 10.6333 17.7444C10.463 17.9148 10.2519 18 10 18ZM6.44444 12.6667C6.19259 12.6667 5.98148 12.5815 5.81111 12.4111C5.64074 12.2407 5.55556 12.0296 5.55556 11.7778V10.8889H2.88889C2.63704 10.8889 2.42593 10.8037 2.25556 10.6333C2.08519 10.463 2 10.2519 2 10C2 9.74815 2.08519 9.53704 2.25556 9.36667C2.42593 9.1963 2.63704 9.11111 2.88889 9.11111H5.55556V8.22222C5.55556 7.97037 5.64074 7.75926 5.81111 7.58889C5.98148 7.41852 6.19259 7.33333 6.44444 7.33333C6.6963 7.33333 6.90741 7.41852 7.07778 7.58889C7.24815 7.75926 7.33333 7.97037 7.33333 8.22222V11.7778C7.33333 12.0296 7.24815 12.2407 7.07778 12.4111C6.90741 12.5815 6.6963 12.6667 6.44444 12.6667ZM10 10.8889C9.74815 10.8889 9.53704 10.8037 9.36667 10.6333C9.1963 10.463 9.11111 10.2519 9.11111 10C9.11111 9.74815 9.1963 9.53704 9.36667 9.36667C9.53704 9.1963 9.74815 9.11111 10 9.11111H17.1111C17.363 9.11111 17.5741 9.1963 17.7444 9.36667C17.9148 9.53704 18 9.74815 18 10C18 10.2519 17.9148 10.463 17.7444 10.6333C17.5741 10.8037 17.363 10.8889 17.1111 10.8889H10ZM13.5556 7.33333C13.3037 7.33333 13.0926 7.24815 12.9222 7.07778C12.7519 6.90741 12.6667 6.6963 12.6667 6.44444V2.88889C12.6667 2.63704 12.7519 2.42593 12.9222 2.25556C13.0926 2.08519 13.3037 2 13.5556 2C13.8074 2 14.0185 2.08519 14.1889 2.25556C14.3593 2.42593 14.4444 2.63704 14.4444 2.88889V3.77778H17.1111C17.363 3.77778 17.5741 3.86296 17.7444 4.03333C17.9148 4.2037 18 4.41481 18 4.66667C18 4.91852 17.9148 5.12963 17.7444 5.3C17.5741 5.47037 17.363 5.55556 17.1111 5.55556H14.4444V6.44444C14.4444 6.6963 14.3593 6.90741 14.1889 7.07778C14.0185 7.24815 13.8074 7.33333 13.5556 7.33333Z" fill="#1C1B1F"/>
</g>
</svg>
