<svg width="60" height="60" viewBox="0 0 60 60" fill="none" xmlns="http://www.w3.org/2000/svg">
<rect width="60" height="60" rx="18.75" fill="#DE006B"/>
<mask id="mask0_1165_10056" style="mask-type:alpha" maskUnits="userSpaceOnUse" x="7" y="7" width="46" height="46">
<rect x="7.69385" y="7.69385" width="44.6121" height="44.6121" fill="#D9D9D9"/>
</mask>
<g mask="url(#mask0_1165_10056)">
<path d="M17.1013 33.1245C16.7673 33.1245 16.4897 33.0122 16.2683 32.7876C16.047 32.563 15.9363 32.2847 15.9363 31.9526V23.3589C15.9363 23.0269 16.0492 22.7485 16.2751 22.5239C16.5011 22.2993 16.781 22.187 17.115 22.187C17.449 22.187 17.7266 22.2993 17.948 22.5239C18.1694 22.7485 18.28 23.0269 18.28 23.3589V31.9526C18.28 32.2847 18.1671 32.563 17.9412 32.7876C17.7152 33.0122 17.4353 33.1245 17.1013 33.1245ZM12.4138 37.812C12.0798 37.812 11.8022 37.6997 11.5808 37.4751C11.3595 37.2505 11.2488 36.9722 11.2488 36.6401V28.0464C11.2488 27.7144 11.3617 27.436 11.5876 27.2114C11.8136 26.9868 12.0935 26.8745 12.4275 26.8745C12.7615 26.8745 13.0391 26.9868 13.2605 27.2114C13.4819 27.436 13.5925 27.7144 13.5925 28.0464V36.6401C13.5925 36.9722 13.4796 37.2505 13.2537 37.4751C13.0277 37.6997 12.7478 37.812 12.4138 37.812ZM47.5701 33.1245C47.2361 33.1245 46.9584 33.0122 46.7371 32.7876C46.5157 32.563 46.405 32.2847 46.405 31.9526V23.3589C46.405 23.0269 46.518 22.7485 46.7439 22.5239C46.9698 22.2993 47.2498 22.187 47.5837 22.187C47.9177 22.187 48.1954 22.2993 48.4167 22.5239C48.6381 22.7485 48.7488 23.0269 48.7488 23.3589V31.9526C48.7488 32.2847 48.6358 32.563 48.4099 32.7876C48.184 33.0122 47.904 33.1245 47.5701 33.1245ZM42.8826 37.812C42.5486 37.812 42.2709 37.6997 42.0496 37.4751C41.8282 37.2505 41.7175 36.9722 41.7175 36.6401V28.0464C41.7175 27.7144 41.8305 27.436 42.0564 27.2114C42.2823 26.9868 42.5623 26.8745 42.8962 26.8745C43.2302 26.8745 43.5079 26.9868 43.7292 27.2114C43.9506 27.436 44.0613 27.7144 44.0613 28.0464V36.6401C44.0613 36.9722 43.9483 37.2505 43.7224 37.4751C43.4965 37.6997 43.2165 37.812 42.8826 37.812ZM22.9675 45.6245C22.3686 45.6245 21.8282 45.3836 21.3464 44.9019C20.8647 44.4201 20.6238 43.8797 20.6238 43.2808V16.7183C20.6238 16.1193 20.8647 15.5789 21.3464 15.0972C21.8282 14.6154 22.3686 14.3745 22.9675 14.3745H37.03C37.629 14.3745 38.1694 14.6154 38.6511 15.0972C39.1329 15.5789 39.3738 16.1193 39.3738 16.7183V43.2808C39.3738 43.8797 39.1329 44.4201 38.6511 44.9019C38.1694 45.3836 37.629 45.6245 37.03 45.6245H22.9675ZM22.9675 39.7651H37.03V20.2339H22.9675V39.7651Z" fill="#090A0A"/>
</g>
</svg>
