<svg width="24" height="24" viewBox="0 0 24 24" fill="none" xmlns="http://www.w3.org/2000/svg">
<rect width="24" height="24" rx="6" fill="#4FF788"/>
<mask id="mask0_1165_10385" style="mask-type:alpha" maskUnits="userSpaceOnUse" x="2" y="2" width="20" height="20">
<rect x="2" y="2" width="20" height="20" fill="#D9D9D9"/>
</mask>
<g mask="url(#mask0_1165_10385)">
<path d="M14.5185 13.8393L15.463 12.9286L13.9074 11.4286C14.0062 11.25 14.0833 11.0668 14.1389 10.8789C14.1944 10.6911 14.2222 10.4933 14.2222 10.2857C14.2222 9.64286 13.9846 9.09226 13.5093 8.63393C13.034 8.1756 12.4537 7.94643 11.7685 7.94643C11.0833 7.94643 10.5062 8.17296 10.037 8.62604C9.5679 9.07911 9.33333 9.63565 9.33333 10.2957C9.33333 10.9557 9.5679 11.5119 10.037 11.9643C10.5062 12.4167 11.0802 12.6429 11.7593 12.6429C11.9568 12.6429 12.1543 12.619 12.3519 12.5714C12.5494 12.5238 12.7531 12.4464 12.963 12.3393L14.5185 13.8393ZM11.7963 11.3571C11.5 11.3571 11.2377 11.2507 11.0093 11.0378C10.7809 10.8249 10.6667 10.5689 10.6667 10.2699C10.6667 9.97092 10.7809 9.71726 11.0093 9.50893C11.2377 9.3006 11.5 9.19643 11.7963 9.19643C12.1049 9.19643 12.3673 9.30655 12.5833 9.52679C12.7994 9.74702 12.9074 10 12.9074 10.2857C12.9074 10.5714 12.7986 10.8214 12.581 11.0357C12.3634 11.25 12.1019 11.3571 11.7963 11.3571ZM4.66667 18C4.47778 18 4.31944 17.9388 4.19167 17.8163C4.06389 17.6938 4 17.542 4 17.3609C4 17.1798 4.06389 17.0268 4.19167 16.9018C4.31944 16.7768 4.47778 16.7143 4.66667 16.7143H19.3333C19.5222 16.7143 19.6806 16.7755 19.8083 16.898C19.9361 17.0205 20 17.1723 20 17.3534C20 17.5345 19.9361 17.6875 19.8083 17.8125C19.6806 17.9375 19.5222 18 19.3333 18H4.66667ZM6.22222 15.8571C5.85556 15.8571 5.54167 15.7312 5.28056 15.4795C5.01944 15.2277 4.88889 14.925 4.88889 14.5714V7.28571C4.88889 6.93214 5.01944 6.62946 5.28056 6.37768C5.54167 6.12589 5.85556 6 6.22222 6H17.7778C18.1444 6 18.4583 6.12589 18.7194 6.37768C18.9806 6.62946 19.1111 6.93214 19.1111 7.28571V14.5714C19.1111 14.925 18.9806 15.2277 18.7194 15.4795C18.4583 15.7312 18.1444 15.8571 17.7778 15.8571H6.22222Z" fill="#090A0A"/>
</g>
</svg>
