<svg width="14" height="13" viewBox="0 0 14 13" fill="none" xmlns="http://www.w3.org/2000/svg">
<path d="M6.06683 12.15L5.0335 11.2167C3.78905 10.0944 2.69461 9.00556 1.75016 7.95C0.805718 6.89444 0.333496 5.72778 0.333496 4.45C0.333496 3.40556 0.686274 2.52778 1.39183 1.81667C2.09739 1.10556 2.97794 0.75 4.0335 0.75C4.6335 0.75 5.18905 0.875 5.70016 1.125C6.21127 1.375 6.64461 1.69444 7.00016 2.08333C7.34461 1.69444 7.77239 1.375 8.2835 1.125C8.79461 0.875 9.35016 0.75 9.95016 0.75C11.0057 0.75 11.8891 1.10556 12.6002 1.81667C13.3113 2.52778 13.6668 3.40556 13.6668 4.45C13.6668 5.72778 13.1863 6.9 12.2252 7.96667C11.2641 9.03333 10.1279 10.1611 8.81683 11.35L7.9335 12.15C7.67794 12.3944 7.36961 12.5139 7.0085 12.5083C6.64739 12.5028 6.3335 12.3833 6.06683 12.15Z" fill="#DE006B"/>
</svg>
