<svg width="24" height="24" viewBox="0 0 24 24" fill="none" xmlns="http://www.w3.org/2000/svg">
<rect width="24" height="24" rx="6" fill="#75C8FF"/>
<mask id="mask0_1165_11008" style="mask-type:alpha" maskUnits="userSpaceOnUse" x="2" y="2" width="20" height="20">
<rect x="2" y="2" width="20" height="20" fill="#D9D9D9"/>
</mask>
<g mask="url(#mask0_1165_11008)">
<path d="M11.9792 20.3337L11.7604 17.8337H11.5417C9.59722 17.8337 7.9375 17.1462 6.5625 15.7712C5.1875 14.3962 4.5 12.7225 4.5 10.7503C4.5 8.7781 5.1875 7.10449 6.5625 5.72949C7.9375 4.35449 9.61111 3.66699 11.5833 3.66699C12.5694 3.66699 13.4896 3.85102 14.3438 4.21908C15.1979 4.58713 15.9457 5.09408 16.5871 5.73991C17.2285 6.38574 17.732 7.13574 18.0975 7.98991C18.4631 8.84408 18.6458 9.76421 18.6458 10.7503C18.6458 12.7503 18.0521 14.601 16.8646 16.3024C15.6771 18.0038 14.0486 19.3475 11.9792 20.3337ZM11.5833 15.2503C11.8252 15.2503 12.0315 15.165 12.2022 14.9942C12.373 14.8235 12.4583 14.6172 12.4583 14.3753C12.4583 14.1335 12.373 13.9272 12.2022 13.7564C12.0315 13.5857 11.8252 13.5003 11.5833 13.5003C11.3415 13.5003 11.1352 13.5857 10.9644 13.7564C10.7937 13.9272 10.7083 14.1335 10.7083 14.3753C10.7083 14.6172 10.7937 14.8235 10.9644 14.9942C11.1352 15.165 11.3415 15.2503 11.5833 15.2503ZM11.5629 12.6462C11.7208 12.6462 11.8644 12.5906 11.9936 12.4795C12.1229 12.3684 12.2153 12.2156 12.2708 12.0212C12.3264 11.8406 12.4167 11.667 12.5417 11.5003C12.6667 11.3337 12.8542 11.1253 13.1042 10.8753C13.4236 10.5559 13.6528 10.2615 13.7917 9.99231C13.9306 9.72308 14 9.43462 14 9.12693C14 8.47308 13.7847 7.95519 13.3542 7.57324C12.9236 7.1913 12.3542 7.00033 11.6458 7.00033C11.2014 7.00033 10.7882 7.10102 10.4062 7.30241C10.0243 7.5038 9.71528 7.7781 9.47917 8.12533C9.36806 8.2781 9.35069 8.44824 9.42708 8.63574C9.50347 8.82324 9.63889 8.95558 9.83333 9.03274C9.97222 9.09447 10.1188 9.09847 10.2731 9.04476C10.4275 8.99107 10.5664 8.89037 10.6898 8.74268C10.8133 8.595 10.9549 8.48296 11.1146 8.40658C11.2743 8.33019 11.4534 8.29199 11.652 8.29199C11.9673 8.29199 12.2188 8.36491 12.4062 8.51074C12.5938 8.65658 12.6875 8.86144 12.6875 9.12533C12.6875 9.31977 12.6285 9.51421 12.5104 9.70866C12.3924 9.9031 12.2083 10.1114 11.9583 10.3337C11.625 10.6253 11.3854 10.8892 11.2396 11.1253C11.0938 11.3614 10.9977 11.66 10.9514 12.0212C10.9282 12.1878 10.9777 12.3337 11.0998 12.4587C11.2218 12.5837 11.3762 12.6462 11.5629 12.6462Z" fill="#FFF059"/>
</g>
</svg>
