<svg width="24" height="24" viewBox="0 0 24 24" fill="none" xmlns="http://www.w3.org/2000/svg">
<rect width="24" height="24" rx="6" fill="#090A0A"/>
<mask id="mask0_1165_10993" style="mask-type:alpha" maskUnits="userSpaceOnUse" x="3" y="3" width="18" height="19">
<rect x="3" y="3" width="18" height="19" fill="#D9D9D9"/>
</mask>
<g mask="url(#mask0_1165_10993)">
<path d="M18.9938 9.46875L17.925 9L18.9938 8.5125L19.4625 7.4625L19.95 8.5125L21 9L19.95 9.46875L19.4625 10.5375L18.9938 9.46875ZM16.5188 6.01875L14.9625 5.2875L16.5188 4.55625L17.25 3L17.9812 4.55625L19.5375 5.2875L17.9812 6.01875L17.25 7.575L16.5188 6.01875ZM10.75 20.5C10.3375 20.5 9.98438 20.3531 9.69063 20.0594C9.39688 19.7656 9.25 19.4125 9.25 19H12.2312C12.2312 19.4125 12.0875 19.7656 11.8 20.0594C11.5125 20.3531 11.1625 20.5 10.75 20.5ZM8.5375 18.325C8.325 18.325 8.14062 18.2469 7.98438 18.0906C7.82812 17.9344 7.75 17.75 7.75 17.5375C7.75 17.325 7.82812 17.1406 7.98438 16.9844C8.14062 16.8281 8.325 16.75 8.5375 16.75H12.9437C13.1562 16.75 13.3406 16.8281 13.4969 16.9844C13.6531 17.1406 13.7312 17.325 13.7312 17.5375C13.7312 17.75 13.6531 17.9344 13.4969 18.0906C13.3406 18.2469 13.1562 18.325 12.9437 18.325H8.5375ZM7.95625 16.075C7.08125 15.5625 6.39062 14.8719 5.88437 14.0031C5.37813 13.1344 5.125 12.1875 5.125 11.1625C5.125 9.575 5.66562 8.23438 6.74688 7.14062C7.82812 6.04688 9.1625 5.5 10.75 5.5C12.3125 5.5 13.6375 6.04688 14.725 7.14062C15.8125 8.23438 16.3562 9.575 16.3562 11.1625C16.3562 12.1875 16.1031 13.1344 15.5969 14.0031C15.0906 14.8719 14.4 15.5625 13.525 16.075H7.95625Z" fill="#FFF059"/>
</g>
</svg>
