<svg width="26" height="26" viewBox="0 0 26 26" fill="none" xmlns="http://www.w3.org/2000/svg">
<path d="M11.9694 1.17999C12.5146 0.555692 13.4854 0.555692 14.0306 1.17999L15.2832 2.61411C15.6331 3.01467 16.1834 3.17624 16.6942 3.02842L18.5233 2.49917C19.3196 2.26878 20.1362 2.79359 20.2574 3.61359L20.5358 5.49726C20.6136 6.02338 20.9891 6.45678 21.4988 6.60863L23.3237 7.15229C24.1181 7.38895 24.5214 8.27194 24.18 9.0273L23.3958 10.7625C23.1768 11.2471 23.2584 11.8148 23.6051 12.2181L24.8464 13.662C25.3867 14.2906 25.2486 15.2514 24.553 15.7023L22.9552 16.7381C22.509 17.0274 22.2707 17.549 22.3443 18.0757L22.6079 19.9615C22.7226 20.7825 22.0869 21.5161 21.258 21.5194L19.3539 21.5269C18.8221 21.529 18.3396 21.839 18.1168 22.3219L17.319 24.0508C16.9717 24.8035 16.0403 25.077 15.3412 24.6316L13.7353 23.6084C13.2867 23.3227 12.7133 23.3227 12.2647 23.6084L10.6588 24.6316C9.95973 25.077 9.02833 24.8035 8.68102 24.0508L7.8832 22.3219C7.66036 21.839 7.17791 21.529 6.64608 21.5269L4.74196 21.5194C3.91306 21.5161 3.27738 20.7825 3.39211 19.9616L3.65566 18.0757C3.72927 17.549 3.49104 17.0274 3.04477 16.7381L1.44698 15.7023C0.751431 15.2514 0.613284 14.2906 1.15363 13.662L2.39489 12.2181C2.74158 11.8148 2.82319 11.2471 2.60417 10.7625L1.82 9.0273C1.47863 8.27195 1.88188 7.38895 2.67629 7.15229L4.50116 6.60863C5.01086 6.45678 5.38641 6.02337 5.46417 5.49726L5.74259 3.61358C5.86379 2.79359 6.68041 2.26878 7.47665 2.49917L9.30576 3.02842C9.81664 3.17624 10.3669 3.01467 10.7168 2.61411L11.9694 1.17999Z" fill="#090A0A"/>
<path d="M8.89502 12.3558C10.154 13.1951 12.0317 15.2754 12.6699 16.5517C13.1342 17.4803 15.1899 11.7263 16.7637 8.89355" stroke="white" stroke-width="2.39474" stroke-linecap="round" stroke-linejoin="round"/>
</svg>
