<svg width="24" height="24" viewBox="0 0 24 24" fill="none" xmlns="http://www.w3.org/2000/svg">
<mask id="mask0_1165_9958" style="mask-type:alpha" maskUnits="userSpaceOnUse" x="0" y="0" width="24" height="24">
<rect width="24" height="24" fill="#D9D9D9"/>
</mask>
<g mask="url(#mask0_1165_9958)">
<path d="M10.5732 15.5L14.6219 12.85C14.9309 12.65 15.0854 12.3667 15.0854 12C15.0854 11.6333 14.9309 11.35 14.6219 11.15L10.5732 8.5C10.248 8.26667 9.91463 8.25 9.57317 8.45C9.2317 8.65 9.06097 8.94167 9.06097 9.325V14.675C9.06097 15.0583 9.2317 15.35 9.57317 15.55C9.91463 15.75 10.248 15.7333 10.5732 15.5ZM3.69512 20C3.15853 20 2.69918 19.8042 2.31707 19.4125C1.93495 19.0208 1.7439 18.55 1.7439 18V6C1.7439 5.45 1.93495 4.97917 2.31707 4.5875C2.69918 4.19583 3.15853 4 3.69512 4H19.3049C19.8415 4 20.3008 4.19583 20.6829 4.5875C21.065 4.97917 21.2561 5.45 21.2561 6V18C21.2561 18.55 21.065 19.0208 20.6829 19.4125C20.3008 19.8042 19.8415 20 19.3049 20H3.69512Z" fill="#090A0A"/>
</g>
</svg>
