<svg width="24" height="24" viewBox="0 0 24 24" fill="none" xmlns="http://www.w3.org/2000/svg">
<mask id="mask0_1165_9929" style="mask-type:alpha" maskUnits="userSpaceOnUse" x="0" y="0" width="24" height="24">
<rect width="24" height="24" fill="#D9D9D9"/>
</mask>
<g mask="url(#mask0_1165_9929)">
<path d="M13.5 8V4C13.5 3.84258 13.5478 3.73432 13.6411 3.64105C13.7343 3.54778 13.8426 3.5 14 3.5H20C20.1574 3.5 20.2657 3.54778 20.3589 3.64105C20.4522 3.73432 20.5 3.84258 20.5 4V8C20.5 8.15742 20.4522 8.26568 20.3589 8.35895C20.2657 8.45222 20.1574 8.5 20 8.5H14C13.8426 8.5 13.7343 8.45222 13.6411 8.35895C13.5478 8.26568 13.5 8.15742 13.5 8ZM3.5 12V4C3.5 3.84258 3.54778 3.73432 3.64105 3.64105C3.73432 3.54778 3.84258 3.5 4 3.5H10C10.1574 3.5 10.2657 3.54778 10.3589 3.64105C10.4522 3.73432 10.5 3.84258 10.5 4V12C10.5 12.1574 10.4522 12.2657 10.3589 12.3589C10.2657 12.4522 10.1574 12.5 10 12.5H4C3.84258 12.5 3.73432 12.4522 3.64105 12.3589C3.54778 12.2657 3.5 12.1574 3.5 12ZM13.5 12C13.5 11.8426 13.5478 11.7343 13.6411 11.6411C13.7343 11.5478 13.8426 11.5 14 11.5H20C20.1574 11.5 20.2657 11.5478 20.3589 11.6411C20.4522 11.7343 20.5 11.8426 20.5 12V20C20.5 20.1574 20.4522 20.2657 20.3589 20.3589C20.2657 20.4522 20.1574 20.5 20 20.5H14C13.8426 20.5 13.7343 20.4522 13.6411 20.3589C13.5478 20.2657 13.5 20.1574 13.5 20V12ZM3.5 20V16C3.5 15.8426 3.54778 15.7343 3.64105 15.6411C3.73432 15.5478 3.84258 15.5 4 15.5H10C10.1574 15.5 10.2657 15.5478 10.3589 15.6411C10.4522 15.7343 10.5 15.8426 10.5 16V20C10.5 20.1574 10.4522 20.2657 10.3589 20.3589C10.2657 20.4522 10.1574 20.5 10 20.5H4C3.84258 20.5 3.73432 20.4522 3.64105 20.3589C3.54778 20.2657 3.5 20.1574 3.5 20Z" stroke="#B8B8B8"/>
</g>
</svg>
