<svg width="7" height="12" viewBox="0 0 7 12" fill="none" xmlns="http://www.w3.org/2000/svg">
<path d="M0.696875 11.3008C0.513541 11.1174 0.421875 10.8841 0.421875 10.6008C0.421875 10.3174 0.513541 10.0841 0.696875 9.90078L4.59688 6.00078L0.696875 2.10078C0.513541 1.91745 0.421875 1.68411 0.421875 1.40078C0.421875 1.11745 0.513541 0.884114 0.696875 0.700781C0.880208 0.517448 1.11354 0.425781 1.39687 0.425781C1.68021 0.425781 1.91354 0.517448 2.09688 0.700781L6.69687 5.30078C6.79687 5.40078 6.86788 5.50911 6.90987 5.62578C6.95121 5.74245 6.97188 5.86745 6.97188 6.00078C6.97188 6.13411 6.95121 6.25911 6.90987 6.37578C6.86788 6.49245 6.79687 6.60078 6.69687 6.70078L2.09688 11.3008C1.91354 11.4841 1.68021 11.5758 1.39687 11.5758C1.11354 11.5758 0.880208 11.4841 0.696875 11.3008Z" fill="#090A0A"/>
</svg>
