<svg width="24" height="24" viewBox="0 0 24 24" fill="none" xmlns="http://www.w3.org/2000/svg">
<rect width="24" height="24" rx="6" fill="#FFF059"/>
<mask id="mask0_1165_10390" style="mask-type:alpha" maskUnits="userSpaceOnUse" x="2" y="2" width="20" height="20">
<rect x="2" y="2" width="20" height="20" fill="#D9D9D9"/>
</mask>
<g mask="url(#mask0_1165_10390)">
<path d="M12.2063 11.9612C12.5688 11.6362 12.85 11.2175 13.05 10.705C13.25 10.1925 13.35 9.61748 13.35 8.97998C13.35 8.34248 13.25 7.76748 13.05 7.25498C12.85 6.74248 12.5688 6.32373 12.2063 5.99873C13.2063 5.91123 14.0094 6.17061 14.6156 6.77686C15.2219 7.38311 15.525 8.11748 15.525 8.97998C15.525 9.84248 15.2219 10.5769 14.6156 11.1831C14.0094 11.7894 13.2063 12.0487 12.2063 11.9612ZM16.125 17.9987C16.225 17.8987 16.2937 17.78 16.3312 17.6425C16.3687 17.505 16.3875 17.3612 16.3875 17.2112V15.6737C16.3875 15.2237 16.2562 14.7362 15.9937 14.2112C15.7312 13.6862 15.3 13.2237 14.7 12.8237C16.2125 13.0612 17.3594 13.4144 18.1406 13.8831C18.9219 14.3519 19.3125 15.005 19.3125 15.8425V17.2112C19.3125 17.4237 19.2344 17.6081 19.0781 17.7644C18.9219 17.9206 18.7375 17.9987 18.525 17.9987H16.125ZM18.75 12.8237C18.5375 12.8237 18.3531 12.7456 18.1969 12.5894C18.0406 12.4331 17.9625 12.2487 17.9625 12.0362V11.3612H17.2875C17.075 11.3612 16.8906 11.2831 16.7344 11.1269C16.5781 10.9706 16.5 10.7862 16.5 10.5737C16.5 10.3612 16.5781 10.1769 16.7344 10.0206C16.8906 9.86436 17.075 9.78623 17.2875 9.78623H17.9625V9.11123C17.9625 8.89873 18.0406 8.71436 18.1969 8.55811C18.3531 8.40186 18.5375 8.32373 18.75 8.32373C18.9625 8.32373 19.1469 8.40186 19.3031 8.55811C19.4594 8.71436 19.5375 8.89873 19.5375 9.11123V9.78623H20.2125C20.425 9.78623 20.6094 9.86436 20.7656 10.0206C20.9219 10.1769 21 10.3612 21 10.5737C21 10.7862 20.9219 10.9706 20.7656 11.1269C20.6094 11.2831 20.425 11.3612 20.2125 11.3612H19.5375V12.0362C19.5375 12.2487 19.4594 12.4331 19.3031 12.5894C19.1469 12.7456 18.9625 12.8237 18.75 12.8237ZM8.9625 11.98C8.1125 11.98 7.4 11.6925 6.825 11.1175C6.25 10.5425 5.9625 9.82998 5.9625 8.97998C5.9625 8.12998 6.25 7.41748 6.825 6.84248C7.4 6.26748 8.1125 5.97998 8.9625 5.97998C9.8125 5.97998 10.525 6.26748 11.1 6.84248C11.675 7.41748 11.9625 8.12998 11.9625 8.97998C11.9625 9.82998 11.675 10.5425 11.1 11.1175C10.525 11.6925 9.8125 11.98 8.9625 11.98ZM3.7875 17.9987C3.575 17.9987 3.39062 17.9206 3.23438 17.7644C3.07813 17.6081 3 17.4237 3 17.2112V15.8425C3 15.405 3.1125 15.0112 3.3375 14.6612C3.5625 14.3112 3.85625 14.0487 4.21875 13.8737C4.96875 13.5112 5.74063 13.2331 6.53437 13.0394C7.32812 12.8456 8.1375 12.7487 8.9625 12.7487C9.7875 12.7487 10.5969 12.8456 11.3906 13.0394C12.1844 13.2331 12.9563 13.5112 13.7063 13.8737C14.0688 14.0487 14.3625 14.3112 14.5875 14.6612C14.8125 15.0112 14.925 15.405 14.925 15.8425V17.2112C14.925 17.4237 14.8469 17.6081 14.6906 17.7644C14.5344 17.9206 14.35 17.9987 14.1375 17.9987H3.7875Z" fill="#1C1B1F"/>
</g>
</svg>
