<svg width="60" height="60" viewBox="0 0 60 60" fill="none" xmlns="http://www.w3.org/2000/svg">
<g opacity="0.2">
<mask id="mask0_1165_9883" style="mask-type:alpha" maskUnits="userSpaceOnUse" x="7" y="7" width="46" height="46">
<rect x="7.69385" y="7.69385" width="44.6121" height="44.6121" fill="#D9D9D9"/>
</mask>
<g mask="url(#mask0_1165_9883)">
<path d="M29.2177 24.7101H38.7333C39.0432 24.7101 39.303 24.6068 39.5126 24.4002C39.7222 24.1935 39.8271 23.9375 39.8271 23.632C39.8271 23.3266 39.7222 23.0726 39.5126 22.8701C39.303 22.6677 39.0432 22.5665 38.7333 22.5665H29.2177C28.9078 22.5665 28.648 22.6698 28.4384 22.8764C28.2288 23.083 28.1239 23.3391 28.1239 23.6445C28.1239 23.95 28.2288 24.204 28.4384 24.4064C28.648 24.6089 28.9078 24.7101 29.2177 24.7101ZM29.2177 28.9974H38.7333C39.0432 28.9974 39.303 28.8941 39.5126 28.6875C39.7222 28.4808 39.8271 28.2248 39.8271 27.9193C39.8271 27.6139 39.7222 27.3599 39.5126 27.1574C39.303 26.955 39.0432 26.8538 38.7333 26.8538H29.2177C28.9078 26.8538 28.648 26.9571 28.4384 27.1637C28.2288 27.3703 28.1239 27.6264 28.1239 27.9318C28.1239 28.2373 28.2288 28.4913 28.4384 28.6937C28.648 28.8962 28.9078 28.9974 29.2177 28.9974ZM29.2177 33.2847H34.3219C34.6318 33.2847 34.8915 33.1814 35.1012 32.9748C35.3108 32.7681 35.4156 32.5121 35.4156 32.2067C35.4156 31.9012 35.3108 31.6472 35.1012 31.4448C34.8915 31.2423 34.6318 31.1411 34.3219 31.1411H29.2177C28.9078 31.1411 28.648 31.2444 28.4384 31.451C28.2288 31.6577 28.1239 31.9137 28.1239 32.2192C28.1239 32.5246 28.2288 32.7786 28.4384 32.981C28.648 33.1835 28.9078 33.2847 29.2177 33.2847ZM23.7854 25.0674C24.1986 25.0674 24.5449 24.9304 24.8245 24.6565C25.104 24.3826 25.2437 24.0432 25.2437 23.6383C25.2437 23.2334 25.104 22.894 24.8245 22.62C24.5449 22.3461 24.1986 22.2092 23.7854 22.2092C23.3722 22.2092 23.0259 22.3461 22.7463 22.62C22.4668 22.894 22.3271 23.2334 22.3271 23.6383C22.3271 24.0432 22.4668 24.3826 22.7463 24.6565C23.0259 24.9304 23.3722 25.0674 23.7854 25.0674ZM23.7854 29.3547C24.1986 29.3547 24.5449 29.2177 24.8245 28.9438C25.104 28.6699 25.2437 28.3305 25.2437 27.9256C25.2437 27.5207 25.104 27.1813 24.8245 26.9074C24.5449 26.6334 24.1986 26.4965 23.7854 26.4965C23.3722 26.4965 23.0259 26.6334 22.7463 26.9074C22.4668 27.1813 22.3271 27.5207 22.3271 27.9256C22.3271 28.3305 22.4668 28.6699 22.7463 28.9438C23.0259 29.2177 23.3722 29.3547 23.7854 29.3547ZM23.7854 33.642C24.1986 33.642 24.5449 33.5051 24.8245 33.2311C25.104 32.9572 25.2437 32.6178 25.2437 32.2129C25.2437 31.808 25.104 31.4686 24.8245 31.1947C24.5449 30.9208 24.1986 30.7838 23.7854 30.7838C23.3722 30.7838 23.0259 30.9208 22.7463 31.1947C22.4668 31.4686 22.3271 31.808 22.3271 32.2129C22.3271 32.6178 22.4668 32.9572 22.7463 33.2311C23.0259 33.5051 23.3722 33.642 23.7854 33.642ZM16.4573 42.4667V18.6007C16.4573 18.0529 16.676 17.5586 17.1135 17.118C17.551 16.6774 18.0614 16.457 18.6448 16.457H43.4364C43.9955 16.457 44.4998 16.6774 44.9495 17.118C45.3991 17.5586 45.6239 18.0529 45.6239 18.6007V37.179C45.6239 37.7269 45.3991 38.2211 44.9495 38.6617C44.4998 39.1024 43.9955 39.3227 43.4364 39.3227H22.2906L18.3167 43.217C17.9764 43.5505 17.5814 43.626 17.1318 43.4437C16.6821 43.2613 16.4573 42.9357 16.4573 42.4667Z" fill="#090A0A"/>
</g>
</g>
</svg>
