<svg width="60" height="60" viewBox="0 0 60 60" fill="none" xmlns="http://www.w3.org/2000/svg">
<g opacity="0.2">
<mask id="mask0_1165_9892" style="mask-type:alpha" maskUnits="userSpaceOnUse" x="7" y="7" width="46" height="46">
<rect x="7.69385" y="7.69385" width="44.6121" height="44.6121" fill="#D9D9D9"/>
</mask>
<g mask="url(#mask0_1165_9892)">
<path d="M19.7837 45.6237C19.4275 45.6237 19.1313 45.5004 18.8952 45.2538C18.6591 45.0071 18.541 44.7015 18.541 44.3369V17.7438C18.541 17.3792 18.6608 17.0736 18.9004 16.827C19.14 16.5803 19.4368 16.457 19.791 16.457H31.8327C32.1243 16.457 32.3848 16.55 32.6139 16.7358C32.8431 16.9217 32.9855 17.1719 33.041 17.4864L33.6243 20.1458H42.291C42.6452 20.1458 42.9421 20.2691 43.1816 20.5157C43.4212 20.7623 43.541 21.0679 43.541 21.4325V34.7291C43.541 35.0937 43.4212 35.3993 43.1816 35.6459C42.9421 35.8925 42.6452 36.0159 42.291 36.0159H33.8743C33.5827 36.0159 33.3223 35.9229 33.0931 35.7371C32.8639 35.5512 32.7216 35.3153 32.666 35.0293L32.0827 32.37H21.041V44.3369C21.041 44.7015 20.9205 45.0071 20.6796 45.2538C20.4386 45.5004 20.1399 45.6237 19.7837 45.6237Z" fill="#090A0A"/>
</g>
</g>
</svg>
