<svg width="60" height="60" viewBox="0 0 60 60" fill="none" xmlns="http://www.w3.org/2000/svg">
<rect width="60" height="60" rx="18.75" fill="#FFF059"/>
<mask id="mask0_1165_9973" style="mask-type:alpha" maskUnits="userSpaceOnUse" x="7" y="7" width="46" height="46">
<rect x="7.69385" y="7.69385" width="44.6121" height="44.6121" fill="#D9D9D9"/>
</mask>
<g mask="url(#mask0_1165_9973)">
<path d="M25.2492 28.3906L23.8325 31.6914L20.5825 33.1302L23.8325 34.569L25.2492 37.8698L26.6659 34.569L29.9159 33.1302L26.6659 31.6914L25.2492 28.3906ZM36.3325 27.8828L35.2909 30.168L33.0409 31.2259L35.2909 32.2839L36.3325 34.569L37.3742 32.2839L39.6242 31.2259L37.3742 30.168L36.3325 27.8828ZM15.8325 16.457L18.9159 22.8893H24.3325L21.2492 16.457H24.9575L28.0409 22.8893H33.4575L30.3742 16.457H34.0825L37.1659 22.8893H42.5825L39.4992 16.457H44.1659C44.8325 16.457 45.4159 16.7109 45.9159 17.2188C46.4159 17.7266 46.6659 18.319 46.6659 18.9961V41.0013C46.6659 41.6784 46.4159 42.2708 45.9159 42.7786C45.4159 43.2865 44.8325 43.5404 44.1659 43.5404H15.8325C15.1659 43.5404 14.5825 43.2865 14.0825 42.7786C13.5825 42.2708 13.3325 41.6784 13.3325 41.0013V18.9961C13.3325 18.319 13.5825 17.7266 14.0825 17.2188C14.5825 16.7109 15.1659 16.457 15.8325 16.457Z" fill="#090A0A"/>
</g>
</svg>
