<svg width="14" height="13" viewBox="0 0 14 13" fill="none" xmlns="http://www.w3.org/2000/svg">
<path d="M5.36864 10.8456L5.36834 10.8454C4.13484 9.73299 3.05341 8.65671 2.12278 7.6166C1.25077 6.642 0.833496 5.59109 0.833496 4.45C0.833496 3.53122 1.13845 2.78194 1.74677 2.16883C2.35298 1.55785 3.10326 1.25 4.0335 1.25C4.56161 1.25 5.04149 1.35943 5.48047 1.57415C5.93976 1.7988 6.32119 2.0817 6.63115 2.42072L7.00606 2.83078L7.37446 2.41485C7.67159 2.07938 8.04519 1.79817 8.50319 1.57415C8.94217 1.35943 9.42205 1.25 9.95016 1.25C10.8804 1.25 11.6343 1.55793 12.2466 2.17022C12.86 2.7836 13.1668 3.53246 13.1668 4.45C13.1668 5.58865 12.7431 6.64493 11.8537 7.63197C10.9061 8.68367 9.78236 9.79953 8.48096 10.9796L7.59786 11.7794L7.59773 11.7793L7.58789 11.7887C7.42954 11.9401 7.24901 12.012 7.01619 12.0084C6.77227 12.0046 6.57375 11.9282 6.39875 11.776L5.36864 10.8456Z" stroke="#B8B8B8"/>
</svg>
