<svg width="24" height="24" viewBox="0 0 24 24" fill="none" xmlns="http://www.w3.org/2000/svg">
<rect width="24" height="24" rx="6" fill="#4FF788"/>
<mask id="mask0_1165_10998" style="mask-type:alpha" maskUnits="userSpaceOnUse" x="1" y="2" width="20" height="20">
<rect x="1" y="2" width="20" height="20" fill="#D9D9D9"/>
</mask>
<g mask="url(#mask0_1165_10998)">
<path d="M13.825 18.174C12.1107 18.174 10.6534 17.5738 9.4529 16.3733C8.25241 15.1728 7.65217 13.7154 7.65217 12.0012C7.65217 10.2998 8.25241 8.84524 9.4529 7.63762C10.6534 6.42999 12.1107 5.82617 13.825 5.82617C15.5264 5.82617 16.9809 6.42999 18.1886 7.63762C19.3962 8.84524 20 10.2998 20 12.0012C20 13.7154 19.3962 15.1728 18.1886 16.3733C16.9809 17.5738 15.5264 18.174 13.825 18.174ZM14.5991 11.6979V9.68669C14.5991 9.46752 14.525 9.2838 14.3769 9.13554C14.2287 8.98727 14.0451 8.91313 13.8261 8.91313C13.6074 8.91313 13.4241 8.98655 13.2762 9.1334C13.1283 9.28024 13.0543 9.46221 13.0543 9.67929V11.9969C13.0543 12.0991 13.0722 12.2002 13.1079 12.3002C13.1437 12.4002 13.1973 12.486 13.2687 12.5575L15.0491 14.3188C15.2056 14.4737 15.3886 14.5511 15.5982 14.5511C15.8078 14.5511 15.9889 14.4725 16.1413 14.3153C16.2985 14.1629 16.3771 13.9818 16.3771 13.7722C16.3771 13.5626 16.2998 13.3805 16.1452 13.2257L14.5991 11.6979ZM4.05636 9.42762C3.83823 9.42762 3.65414 9.3541 3.50408 9.20705C3.35402 9.05999 3.27899 8.87778 3.27899 8.66041C3.27899 8.44302 3.35277 8.25929 3.50032 8.10923C3.64788 7.95917 3.83072 7.88414 4.04884 7.88414H5.58857C5.8067 7.88414 5.99079 7.95767 6.14085 8.10471C6.29091 8.25177 6.36594 8.43399 6.36594 8.65136C6.36594 8.86875 6.29216 9.05247 6.1446 9.20253C5.99704 9.35259 5.81421 9.42762 5.59609 9.42762H4.05636ZM3.02174 12.7718C2.80308 12.7718 2.61979 12.6983 2.47187 12.5513C2.32396 12.4042 2.25 12.222 2.25 12.0046C2.25 11.7872 2.32396 11.6035 2.47187 11.4534C2.61979 11.3034 2.80308 11.2283 3.02174 11.2283H5.5942C5.81286 11.2283 5.99615 11.3019 6.14407 11.4489C6.29198 11.596 6.36594 11.7782 6.36594 11.9956C6.36594 12.2129 6.29198 12.3967 6.14407 12.5467C5.99615 12.6968 5.81286 12.7718 5.5942 12.7718H3.02174ZM4.05636 16.116C3.83823 16.116 3.65414 16.0425 3.50408 15.8955C3.35402 15.7484 3.27899 15.5662 3.27899 15.3488C3.27899 15.1314 3.35277 14.9477 3.50032 14.7976C3.64788 14.6476 3.83072 14.5725 4.04884 14.5725H5.58857C5.8067 14.5725 5.99079 14.6461 6.14085 14.7931C6.29091 14.9402 6.36594 15.1224 6.36594 15.3398C6.36594 15.5572 6.29216 15.7409 6.1446 15.8909C5.99704 16.041 5.81421 16.116 5.59609 16.116H4.05636Z" fill="#DE006B"/>
</g>
</svg>
