<svg width="24" height="24" viewBox="0 0 24 24" fill="none" xmlns="http://www.w3.org/2000/svg">
<rect width="24" height="24" rx="6" fill="#DE006B"/>
<mask id="mask0_1165_11003" style="mask-type:alpha" maskUnits="userSpaceOnUse" x="2" y="2" width="20" height="20">
<rect x="2" y="2" width="20" height="20" fill="#D9D9D9"/>
</mask>
<g mask="url(#mask0_1165_11003)">
<path d="M5 13.0622C5 11.6327 5.42127 10.1678 6.26382 8.66767C7.10637 7.1675 8.31348 5.76551 9.88516 4.4617C10.3712 4.05327 10.8452 3.91582 11.307 4.04935C11.7687 4.18287 11.9996 4.52453 11.9996 5.07433V5.68697C11.9996 6.15822 12.1698 6.55879 12.51 6.88867C12.8503 7.21855 13.2716 7.3835 13.7738 7.3835C14.0331 7.3835 14.2599 7.34422 14.4544 7.26568C14.6488 7.18714 14.8108 7.06932 14.9404 6.91224C15.1025 6.72373 15.305 6.61377 15.5481 6.58236C15.7911 6.55094 16.0017 6.60592 16.18 6.7473C17.0387 7.43848 17.7273 8.3535 18.2458 9.49237C18.7643 10.6312 19.0155 11.8133 18.9993 13.0386C18.9831 14.2639 18.6793 15.3831 18.0879 16.3963C17.4964 17.4095 16.6661 18.2303 15.5967 18.8586C15.8559 18.4973 16.0503 18.1125 16.18 17.704C16.3096 17.2956 16.3744 16.8793 16.3744 16.4552C16.3744 15.9368 16.2812 15.4342 16.0949 14.9472C15.9086 14.4602 15.6291 14.0204 15.2564 13.6277L11.9996 10.0932L8.74286 13.6277C8.37019 14.0204 8.09069 14.4602 7.90436 14.9472C7.71803 15.4342 7.62486 15.9368 7.62486 16.4552C7.62486 16.895 7.69372 17.3231 7.83145 17.7394C7.96917 18.1557 8.17576 18.5445 8.45121 18.9057C7.38182 18.2931 6.53927 17.4684 5.92356 16.4316C5.30785 15.3949 5 14.2717 5 13.0622ZM11.9996 12.638L13.944 14.7587C14.1708 14.9943 14.3409 15.2574 14.4544 15.548C14.5678 15.8386 14.6245 16.141 14.6245 16.4552C14.6245 17.1621 14.3693 17.7629 13.8589 18.2578C13.3485 18.7526 12.7288 19 11.9996 19C11.2705 19 10.6507 18.7526 10.1404 18.2578C9.62996 17.7629 9.37477 17.1621 9.37477 16.4552C9.37477 16.141 9.43148 15.8386 9.5449 15.548C9.65832 15.2574 9.82845 14.9943 10.0553 14.7587L11.9996 12.638Z" fill="#FFF059"/>
</g>
</svg>
