<svg width="24" height="24" viewBox="0 0 24 24" fill="none" xmlns="http://www.w3.org/2000/svg">
<rect width="24" height="24" rx="6.46154" fill="#75C8FF"/>
<mask id="mask0_1165_10956" style="mask-type:alpha" maskUnits="userSpaceOnUse" x="3" y="3" width="18" height="18">
<rect x="3" y="3" width="18" height="18" fill="#D9D9D9"/>
</mask>
<g mask="url(#mask0_1165_10956)">
<path d="M4.5 18.5071V6.97588C4.5 6.54275 4.65422 6.17197 4.96266 5.86354C5.27109 5.5551 5.64188 5.40088 6.075 5.40088H17.925C18.3581 5.40088 18.7289 5.5551 19.0373 5.86354C19.3458 6.17197 19.5 6.54275 19.5 6.97588V15.8259C19.5 16.259 19.3458 16.6298 19.0373 16.9382C18.7289 17.2467 18.3581 17.4009 17.925 17.4009H7.5L5.85 19.0509C5.6 19.3009 5.3125 19.3589 4.9875 19.2249C4.6625 19.0909 4.5 18.8517 4.5 18.5071Z" fill="white"/>
</g>
<mask id="mask1_1165_10956" style="mask-type:alpha" maskUnits="userSpaceOnUse" x="3" y="3" width="18" height="18">
<rect x="3" y="3" width="18" height="18" fill="#D9D9D9"/>
</mask>
<g mask="url(#mask1_1165_10956)">
<path d="M9.01875 12.1698C9.23656 12.1698 9.41914 12.0962 9.56648 11.9488C9.71383 11.8015 9.7875 11.6189 9.7875 11.4011C9.7875 11.1833 9.71383 11.0007 9.56648 10.8533C9.41914 10.706 9.23656 10.6323 9.01875 10.6323C8.80094 10.6323 8.61836 10.706 8.47103 10.8533C8.32368 11.0007 8.25 11.1833 8.25 11.4011C8.25 11.6189 8.32368 11.8015 8.47103 11.9488C8.61836 12.0962 8.80094 12.1698 9.01875 12.1698ZM12 12.1698C12.2178 12.1698 12.4004 12.0962 12.5477 11.9488C12.6951 11.8015 12.7688 11.6189 12.7688 11.4011C12.7688 11.1833 12.6951 11.0007 12.5477 10.8533C12.4004 10.706 12.2178 10.6323 12 10.6323C11.7822 10.6323 11.5996 10.706 11.4523 10.8533C11.3049 11.0007 11.2313 11.1833 11.2313 11.4011C11.2313 11.6189 11.3049 11.8015 11.4523 11.9488C11.5996 12.0962 11.7822 12.1698 12 12.1698ZM14.9813 12.1698C15.1991 12.1698 15.3816 12.0962 15.529 11.9488C15.6763 11.8015 15.75 11.6189 15.75 11.4011C15.75 11.1833 15.6763 11.0007 15.529 10.8533C15.3816 10.706 15.1991 10.6323 14.9813 10.6323C14.7634 10.6323 14.5809 10.706 14.4335 10.8533C14.2862 11.0007 14.2125 11.1833 14.2125 11.4011C14.2125 11.6189 14.2862 11.8015 14.4335 11.9488C14.5809 12.0962 14.7634 12.1698 14.9813 12.1698Z" fill="#75C8FF"/>
</g>
</svg>
