<svg width="24" height="24" viewBox="0 0 24 24" fill="none" xmlns="http://www.w3.org/2000/svg">
<path d="M12.5857 21.25C12.4246 21.5278 12.1933 21.7584 11.9149 21.9187C11.6366 22.079 11.3211 22.1634 10.9999 22.1634C10.6787 22.1634 10.3632 22.079 10.0849 21.9187C9.80654 21.7584 9.57522 21.5278 9.41406 21.25" stroke="#121212" stroke-width="1.57871" stroke-linecap="round" stroke-linejoin="round"/>
<path d="M16.5 9.33301C16.5 7.87432 15.9205 6.47537 14.8891 5.44392C13.8576 4.41247 12.4587 3.83301 11 3.83301C9.54131 3.83301 8.14236 4.41247 7.11091 5.44392C6.07946 6.47537 5.5 7.87432 5.5 9.33301C5.5 15.7497 2.75 17.583 2.75 17.583H19.25C19.25 17.583 16.5 15.7497 16.5 9.33301Z" fill="#121212" stroke="#121212" stroke-width="1.57871" stroke-linecap="round" stroke-linejoin="round"/>
<path d="M21.2499 5C21.2499 7.28712 19.2064 9.25 16.5454 9.25C13.8844 9.25 11.8408 7.28712 11.8408 5C11.8408 2.71288 13.8844 0.75 16.5454 0.75C19.2064 0.75 21.2499 2.71288 21.2499 5Z" fill="#DE006B" stroke="white" stroke-width="1.5"/>
</svg>
