<svg width="24" height="24" viewBox="0 0 24 24" fill="none" xmlns="http://www.w3.org/2000/svg">
<mask id="mask0_1165_9948" style="mask-type:alpha" maskUnits="userSpaceOnUse" x="0" y="0" width="24" height="24">
<rect width="24" height="24" fill="#090A0A"/>
</mask>
<g mask="url(#mask0_1165_9948)">
<path d="M5.25 22C4.63125 22 4.10156 21.7762 3.66094 21.3286C3.22031 20.881 3 20.3429 3 19.7143V9.42857C3 9.06667 3.07969 8.72381 3.23906 8.4C3.39844 8.07619 3.61875 7.80952 3.9 7.6L10.65 2.45714C10.8563 2.30476 11.0719 2.19048 11.2969 2.11429C11.5219 2.0381 11.7563 2 12 2C12.2437 2 12.4781 2.0381 12.7031 2.11429C12.9281 2.19048 13.1438 2.30476 13.35 2.45714L20.1 7.6C20.3813 7.80952 20.6016 8.07619 20.7609 8.4C20.9203 8.72381 21 9.06667 21 9.42857V19.7143C21 20.3429 20.7797 20.881 20.3391 21.3286C19.8984 21.7762 19.3687 22 18.75 22H14.25V14H9.75V22H5.25Z" fill="#090A0A"/>
</g>
</svg>
