<svg width="24" height="24" viewBox="0 0 24 24" fill="none" xmlns="http://www.w3.org/2000/svg">
<rect width="24" height="24" rx="6" fill="#4FF788"/>
<mask id="mask0_1263_13727" style="mask-type:alpha" maskUnits="userSpaceOnUse" x="2" y="2" width="20" height="20">
<rect x="2" y="2" width="20" height="20" fill="#D9D9D9"/>
</mask>
<g mask="url(#mask0_1263_13727)">
<path d="M16.8334 9.14583C16.7222 9.14583 16.6146 9.125 16.5104 9.08333C16.4063 9.04167 16.3056 8.97222 16.2084 8.875L15.0625 7.72917C14.8959 7.5625 14.8125 7.36111 14.8125 7.125C14.8125 6.88889 14.9028 6.68056 15.0834 6.5C15.25 6.33333 15.4514 6.24653 15.6875 6.23958C15.9236 6.23264 16.132 6.31944 16.3125 6.5L16.8334 7.02083L19.1459 4.6875C19.3125 4.52083 19.5139 4.4375 19.75 4.4375C19.9861 4.4375 20.1945 4.52778 20.375 4.70833C20.5556 4.88889 20.6459 5.09722 20.6459 5.33333C20.6459 5.56944 20.5556 5.77778 20.375 5.95833L17.4584 8.875C17.3611 8.97222 17.2604 9.04167 17.1563 9.08333C17.0521 9.125 16.9445 9.14583 16.8334 9.14583ZM7.39585 18.9792C7.10419 19.1042 6.82641 19.0799 6.56252 18.9062C6.29863 18.7326 6.16669 18.4861 6.16669 18.1667V6.25C6.16669 5.76389 6.33683 5.35069 6.6771 5.01042C7.01738 4.67014 7.43058 4.5 7.91669 4.5H13.5209C13.2431 4.81944 13.0382 5.21181 12.9063 5.67708C12.7743 6.14236 12.7084 6.58333 12.7084 7C12.7084 8.04167 13.0278 8.94792 13.6667 9.71875C14.3056 10.4896 15.1111 10.9722 16.0834 11.1667C16.4028 11.2222 16.7014 11.25 16.9792 11.25C17.257 11.25 17.5417 11.2222 17.8334 11.1667V18.1667C17.8334 18.4861 17.7014 18.7326 17.4375 18.9062C17.1736 19.0799 16.8959 19.1042 16.6042 18.9792L12 16.9792L7.39585 18.9792Z" fill="#DE006B"/>
</g>
</svg>
