<svg width="24" height="24" viewBox="0 0 24 24" fill="none" xmlns="http://www.w3.org/2000/svg">
<rect width="24" height="24" rx="6" fill="#FFF059"/>
<mask id="mask0_1263_13719" style="mask-type:alpha" maskUnits="userSpaceOnUse" x="2" y="2" width="20" height="20">
<rect x="2" y="2" width="20" height="20" fill="#D9D9D9"/>
</mask>
<g mask="url(#mask0_1263_13719)">
<path d="M18.1833 18.0913C17.963 18.0913 17.7718 18.0103 17.6097 17.8482C17.4477 17.6862 17.3667 17.497 17.3667 17.2806V5.06351H8.18356C7.96674 5.06351 7.77731 4.98249 7.61528 4.82045C7.45324 4.65842 7.37222 4.46721 7.37222 4.24684C7.37222 4.02647 7.45324 3.83527 7.61528 3.67323C7.77731 3.51119 7.96674 3.43018 8.18356 3.43018H17.3667C17.8158 3.43018 18.2003 3.59011 18.5202 3.90997C18.8401 4.22983 19 4.61434 19 5.06351V17.2806C19 17.497 18.919 17.6862 18.7569 17.8482C18.5949 18.0103 18.4037 18.0913 18.1833 18.0913ZM6.14722 20.0357C5.875 20.1654 5.61574 20.1507 5.36944 19.9917C5.12315 19.8326 5 19.601 5 19.2968V8.33018C5 7.88101 5.15993 7.4965 5.47979 7.17663C5.79965 6.85677 6.18417 6.69684 6.63333 6.69684H14.1C14.5492 6.69684 14.9337 6.85677 15.2535 7.17663C15.5734 7.4965 15.7333 7.88101 15.7333 8.33018V19.2968C15.7333 19.601 15.6102 19.8326 15.3639 19.9917C15.1176 20.1507 14.8583 20.1654 14.5861 20.0357L10.3667 18.208L6.14722 20.0357Z" fill="#1C1B1F"/>
</g>
</svg>
