<svg width="24" height="24" viewBox="0 0 24 24" fill="none" xmlns="http://www.w3.org/2000/svg">
<mask id="mask0_1165_10945" style="mask-type:alpha" maskUnits="userSpaceOnUse" x="1" y="2" width="22" height="22">
<rect x="1" y="2" width="22" height="22" fill="#D9D9D9"/>
</mask>
<g mask="url(#mask0_1165_10945)">
<path d="M19.4669 21.5642L13.632 15.7228C13.0422 16.1368 12.3998 16.4472 11.7048 16.6542C11.0098 16.8612 10.2753 16.9647 9.50126 16.9647C7.42661 16.9647 5.65774 16.2414 4.19464 14.7949C2.73155 13.3484 2 11.5866 2 9.50966C2 7.43268 2.73155 5.66183 4.19464 4.1971C5.65774 2.73237 7.42661 2 9.50126 2C11.5759 2 13.3357 2.73237 14.7806 4.1971C16.2255 5.66183 16.948 7.43268 16.948 9.50966C16.948 10.2948 16.8491 11.0302 16.6515 11.7157C16.4538 12.4011 16.1391 13.0248 15.7075 13.5868L21.5851 19.5138C21.8753 19.8043 22.0132 20.1486 21.999 20.5467C21.9848 20.9449 21.8377 21.2841 21.5578 21.5642C21.2676 21.8547 20.9192 22 20.5124 22C20.1056 22 19.7571 21.8547 19.4669 21.5642ZM9.50126 13.9608C10.7362 13.9608 11.786 13.528 12.6506 12.6625C13.5151 11.797 13.9474 10.746 13.9474 9.50966C13.9474 8.25508 13.5197 7.19048 12.6642 6.31585C11.8088 5.44122 10.7544 5.00391 9.50126 5.00391C8.24809 5.00391 7.18468 5.44122 6.31103 6.31585C5.43738 7.19048 5.00055 8.25508 5.00055 9.50966C5.00055 10.7642 5.43738 11.8197 6.31103 12.6762C7.18468 13.5326 8.24809 13.9608 9.50126 13.9608Z" fill="#1C1B1F"/>
</g>
</svg>
