<svg width="20" height="20" viewBox="0 0 20 20" fill="none" xmlns="http://www.w3.org/2000/svg">
<path d="M17.4669 19.5642L11.632 13.7228C11.0422 14.1368 10.3998 14.4472 9.7048 14.6542C9.00981 14.8612 8.2753 14.9647 7.50126 14.9647C5.42661 14.9647 3.65774 14.2414 2.19464 12.7949C0.731548 11.3484 0 9.58663 0 7.50966C0 5.43268 0.731548 3.66183 2.19464 2.1971C3.65774 0.732366 5.42661 0 7.50126 0C9.57591 0 11.3357 0.732366 12.7806 2.1971C14.2255 3.66183 14.948 5.43268 14.948 7.50966C14.948 8.29485 14.8491 9.03018 14.6515 9.71566C14.4538 10.4011 14.1391 11.0248 13.7075 11.5868L19.5851 17.5138C19.8753 17.8043 20.0132 18.1486 19.999 18.5467C19.9848 18.9449 19.8377 19.2841 19.5578 19.5642C19.2676 19.8547 18.9192 20 18.5124 20C18.1056 20 17.7571 19.8547 17.4669 19.5642ZM7.50126 11.9608C8.73625 11.9608 9.78602 11.528 10.6506 10.6625C11.5151 9.79697 11.9474 8.74602 11.9474 7.50966C11.9474 6.25508 11.5197 5.19048 10.6642 4.31585C9.80875 3.44122 8.75443 3.00391 7.50126 3.00391C6.24809 3.00391 5.18468 3.44122 4.31103 4.31585C3.43738 5.19048 3.00055 6.25508 3.00055 7.50966C3.00055 8.76423 3.43738 9.81973 4.31103 10.6762C5.18468 11.5326 6.24809 11.9608 7.50126 11.9608Z" fill="#1C1B1F"/>
</svg>
