<svg width="18" height="18" viewBox="0 0 18 18" fill="none" xmlns="http://www.w3.org/2000/svg">
<mask id="mask0_1263_13582" style="mask-type:alpha" maskUnits="userSpaceOnUse" x="0" y="0" width="19" height="19">
<rect width="18.209" height="18.209" fill="#D9D9D9"/>
</mask>
<g mask="url(#mask0_1263_13582)">
<path d="M3.50002 15.75C3.15627 15.75 2.862 15.6276 2.61721 15.3828C2.37242 15.138 2.25003 14.8438 2.25003 14.5V3.49999C2.25003 3.15624 2.37242 2.86197 2.61721 2.61718C2.862 2.37239 3.15627 2.25 3.50002 2.25H14.5C14.8438 2.25 15.1381 2.37239 15.3828 2.61718C15.6276 2.86197 15.75 3.15624 15.75 3.49999V11.25L11.25 15.75H3.50002Z" fill="#090A0A"/>
</g>
<mask id="mask1_1263_13582" style="mask-type:alpha" maskUnits="userSpaceOnUse" x="0" y="0" width="19" height="19">
<rect width="18.209" height="18.209" fill="#D9D9D9"/>
</mask>
<g mask="url(#mask1_1263_13582)">
<path d="M8.25002 10.25C8.42711 10.25 8.57554 10.1899 8.69533 10.0697C8.81512 9.94946 8.87501 9.8005 8.87501 9.6228C8.87501 9.4451 8.81512 9.29688 8.69533 9.17813C8.57554 9.05938 8.42711 9 8.25002 9H6.12502C5.94794 9 5.7995 9.06011 5.67971 9.18032C5.55992 9.30053 5.50003 9.44949 5.50003 9.62719C5.50003 9.80489 5.55992 9.95311 5.67971 10.0719C5.7995 10.1906 5.94794 10.25 6.12502 10.25H8.25002ZM11.875 7.24999C12.0521 7.24999 12.2005 7.18988 12.3203 7.06967C12.4401 6.94946 12.5 6.8005 12.5 6.6228C12.5 6.4451 12.4401 6.29687 12.3203 6.17812C12.2005 6.05937 12.0521 6 11.875 6H6.12502C5.94794 6 5.7995 6.06011 5.67971 6.18032C5.55992 6.30053 5.50003 6.44949 5.50003 6.62719C5.50003 6.80489 5.55992 6.95311 5.67971 7.07186C5.7995 7.19061 5.94794 7.24999 6.12502 7.24999H11.875ZM10.75 14.5L14.5 10.75H11.375C11.1979 10.75 11.0495 10.8099 10.9297 10.9297C10.8099 11.0495 10.75 11.1979 10.75 11.375V14.5Z" fill="white"/>
</g>
</svg>
