<svg width="19" height="19" viewBox="0 0 19 19" fill="none" xmlns="http://www.w3.org/2000/svg">
<mask id="mask0_1263_13560" style="mask-type:alpha" maskUnits="userSpaceOnUse" x="0" y="0" width="19" height="19">
<rect width="18.209" height="18.209" fill="#D9D9D9"/>
</mask>
<g mask="url(#mask0_1263_13560)">
<path d="M2.74999 15.75C2.41249 15.75 2.11978 15.626 1.87187 15.3781C1.62396 15.1302 1.5 14.8375 1.5 14.5V5.74999C1.5 5.41249 1.62396 5.11978 1.87187 4.87187C2.11978 4.62396 2.41249 4.5 2.74999 4.5H6V2.74999C6 2.41249 6.12396 2.11978 6.37187 1.87187C6.61978 1.62396 6.91249 1.5 7.24999 1.5H10.75C11.0875 1.5 11.3802 1.62396 11.6281 1.87187C11.876 2.11978 12 2.41249 12 2.74999V4.5H15.25C15.5875 4.5 15.8802 4.62396 16.1281 4.87187C16.376 5.11978 16.5 5.41249 16.5 5.74999V14.5C16.5 14.8375 16.376 15.1302 16.1281 15.3781C15.8802 15.626 15.5875 15.75 15.25 15.75H2.74999ZM7.24999 4.5H10.75V2.74999H7.24999V4.5Z" fill="#090A0A"/>
</g>
</svg>
