<svg width="19" height="19" viewBox="0 0 19 19" fill="none" xmlns="http://www.w3.org/2000/svg">
<mask id="mask0_1263_13579" style="mask-type:alpha" maskUnits="userSpaceOnUse" x="0" y="0" width="19" height="19">
<rect width="18.209" height="18.209" fill="#D9D9D9"/>
</mask>
<g mask="url(#mask0_1263_13579)">
<path d="M2.74998 16.0625C2.49998 16.1542 2.27915 16.1042 2.08749 15.9125C1.89583 15.7208 1.84583 15.5 1.93749 15.25L4.40624 8.35626C4.56041 7.91459 4.86249 7.6448 5.31249 7.54687C5.76249 7.44896 6.1479 7.56042 6.46872 7.88126L10.1312 11.5188C10.4604 11.8396 10.576 12.225 10.4781 12.675C10.3802 13.125 10.1104 13.4271 9.66875 13.5812L2.74998 16.0625ZM10.2562 9.23126C10.1604 9.13542 10.1125 9.02084 10.1125 8.8875C10.1125 8.75417 10.1604 8.63959 10.2562 8.54376L14.3125 4.48749C14.7125 4.08749 15.2104 3.88541 15.8062 3.88125C16.4021 3.87709 16.9 4.07501 17.3 4.47501L17.3375 4.51251C17.4292 4.60417 17.475 4.7125 17.475 4.8375C17.475 4.9625 17.4229 5.07708 17.3187 5.18124C17.2229 5.27708 17.1083 5.325 16.975 5.325C16.8417 5.325 16.7271 5.27708 16.6312 5.18124L16.5875 5.1375C16.3708 4.92082 16.1146 4.81041 15.8188 4.80624C15.5229 4.80208 15.2625 4.9125 15.0375 5.1375L10.925 9.25001C10.8333 9.34167 10.725 9.38751 10.6 9.38751C10.475 9.38751 10.3604 9.33542 10.2562 9.23126ZM7.26873 6.29376C7.17291 6.19792 7.12499 6.08334 7.12499 5.95001C7.12499 5.81667 7.17291 5.70209 7.26873 5.60627L7.44999 5.42501C7.69999 5.17501 7.81874 4.88542 7.80624 4.55625C7.79374 4.22709 7.67499 3.95 7.44999 3.72499L7.26249 3.53749C7.17083 3.44582 7.12499 3.33749 7.12499 3.21249C7.12499 3.08749 7.17707 2.97291 7.28124 2.86875C7.37708 2.77291 7.49166 2.72499 7.62498 2.72499C7.75832 2.72499 7.87291 2.77291 7.96874 2.86875L8.11248 3.01251C8.53748 3.43751 8.7479 3.96042 8.74374 4.58124C8.73957 5.20208 8.52499 5.725 8.09999 6.15L7.93749 6.31251C7.84581 6.40417 7.73748 6.45 7.61249 6.45C7.48749 6.45 7.37291 6.39792 7.26873 6.29376ZM8.78124 7.75626C8.6854 7.66042 8.63748 7.54584 8.63748 7.41251C8.63748 7.27917 8.6854 7.16459 8.78124 7.06877L11.2375 4.6125C11.4542 4.39584 11.5604 4.12084 11.5562 3.7875C11.5521 3.45416 11.4417 3.17916 11.225 2.9625L10.3875 2.12499C10.2958 2.03333 10.25 1.925 10.25 1.8C10.25 1.675 10.3021 1.56042 10.4062 1.45626C10.5021 1.36042 10.6166 1.3125 10.75 1.3125C10.8833 1.3125 10.9979 1.36042 11.0937 1.45626L11.9375 2.30001C12.3292 2.70001 12.5292 3.19584 12.5375 3.7875C12.5458 4.37916 12.35 4.87499 11.95 5.27499L9.44997 7.77501C9.35831 7.86667 9.24998 7.9125 9.12498 7.9125C8.99998 7.9125 8.8854 7.86042 8.78124 7.75626ZM11.7562 10.7437C11.6604 10.6479 11.6125 10.5333 11.6125 10.4C11.6125 10.2667 11.6604 10.1521 11.7562 10.0563L12.4 9.41252C12.825 8.98752 13.3354 8.77085 13.9312 8.76251C14.5271 8.75417 15.0375 8.96251 15.4625 9.38751L16.175 10.1C16.2666 10.1917 16.3125 10.3 16.3125 10.425C16.3125 10.55 16.2604 10.6646 16.1562 10.7688C16.0604 10.8646 15.9458 10.9125 15.8125 10.9125C15.6792 10.9125 15.5646 10.8646 15.4687 10.7688L14.7625 10.0625C14.5125 9.81251 14.2396 9.68751 13.9437 9.68751C13.6479 9.68751 13.375 9.81251 13.125 10.0625L12.425 10.7625C12.3333 10.8542 12.225 10.9 12.1 10.9C11.975 10.9 11.8604 10.8479 11.7562 10.7437Z" fill="#090A0A"/>
</g>
</svg>
