<svg width="18" height="18" viewBox="0 0 18 18" fill="none" xmlns="http://www.w3.org/2000/svg">
<mask id="mask0_1263_13571" style="mask-type:alpha" maskUnits="userSpaceOnUse" x="0" y="0" width="19" height="19">
<rect width="18.209" height="18.209" fill="#D9D9D9"/>
</mask>
<g mask="url(#mask0_1263_13571)">
<path d="M1.5 14.9938V2.74999C1.5 2.42082 1.62396 2.13021 1.87187 1.87813C2.11978 1.62604 2.41249 1.5 2.74999 1.5H15.25C15.5792 1.5 15.8698 1.62604 16.1219 1.87813C16.374 2.13021 16.5 2.42082 16.5 2.74999V12.25C16.5 12.5792 16.374 12.8698 16.1219 13.1219C15.8698 13.374 15.5792 13.5 15.25 13.5H4.5L2.56249 15.4375C2.36666 15.6333 2.14063 15.6775 1.88438 15.5699C1.62812 15.4624 1.5 15.2703 1.5 14.9938Z" fill="#090A0A"/>
</g>
<mask id="mask1_1263_13571" style="mask-type:alpha" maskUnits="userSpaceOnUse" x="0" y="0" width="19" height="19">
<rect width="18.209" height="18.209" fill="#D9D9D9"/>
</mask>
<g mask="url(#mask1_1263_13571)">
<path d="M5.82501 8.21252C6.03751 8.21252 6.21564 8.14065 6.35939 7.9969C6.50314 7.85315 6.57501 7.67502 6.57501 7.46252C6.57501 7.25002 6.50314 7.0719 6.35939 6.92815C6.21564 6.7844 6.03751 6.71252 5.82501 6.71252C5.61251 6.71252 5.43439 6.7844 5.29064 6.92815C5.14689 7.0719 5.07501 7.25002 5.07501 7.46252C5.07501 7.67502 5.14689 7.85315 5.29064 7.9969C5.43439 8.14065 5.61251 8.21252 5.82501 8.21252ZM9.03753 8.21252C9.25003 8.21252 9.42815 8.14065 9.5719 7.9969C9.71565 7.85315 9.78753 7.67502 9.78753 7.46252C9.78753 7.25002 9.71565 7.0719 9.5719 6.92815C9.42815 6.7844 9.25003 6.71252 9.03753 6.71252C8.82503 6.71252 8.6469 6.7844 8.50315 6.92815C8.3594 7.0719 8.28753 7.25002 8.28753 7.46252C8.28753 7.67502 8.3594 7.85315 8.50315 7.9969C8.6469 8.14065 8.82503 8.21252 9.03753 8.21252ZM12.1625 8.21252C12.375 8.21252 12.5532 8.14065 12.6969 7.9969C12.8407 7.85315 12.9125 7.67502 12.9125 7.46252C12.9125 7.25002 12.8407 7.0719 12.6969 6.92815C12.5532 6.7844 12.375 6.71252 12.1625 6.71252C11.95 6.71252 11.7719 6.7844 11.6282 6.92815C11.4844 7.0719 11.4125 7.25002 11.4125 7.46252C11.4125 7.67502 11.4844 7.85315 11.6282 7.9969C11.7719 8.14065 11.95 8.21252 12.1625 8.21252Z" fill="white"/>
</g>
</svg>
