<svg width="19" height="19" viewBox="0 0 19 19" fill="none" xmlns="http://www.w3.org/2000/svg">
<mask id="mask0_1263_13552" style="mask-type:alpha" maskUnits="userSpaceOnUse" x="0" y="0" width="19" height="19">
<rect width="18.209" height="18.209" fill="#D9D9D9"/>
</mask>
<g mask="url(#mask0_1263_13552)">
<path d="M8.99781 3.62499C8.82011 3.62499 8.67188 3.5651 8.55313 3.44531C8.43438 3.32553 8.37501 3.17709 8.37501 3V1.37499C8.37501 1.19792 8.43511 1.04948 8.55533 0.929681C8.67554 0.809894 8.82449 0.75 9.00219 0.75C9.17989 0.75 9.32812 0.809894 9.44687 0.929681C9.56562 1.04948 9.62499 1.19792 9.62499 1.37499V3C9.62499 3.17709 9.56489 3.32553 9.44468 3.44531C9.32446 3.5651 9.17551 3.62499 8.99781 3.62499ZM12.8 5.19999C12.6792 5.07917 12.6187 4.93396 12.6187 4.76438C12.6187 4.59479 12.6792 4.44833 12.8 4.32501L13.9375 3.16875C14.0631 3.04375 14.2122 2.98125 14.3848 2.98125C14.5574 2.98125 14.7063 3.04375 14.8313 3.16875C14.9521 3.28959 15.0125 3.43542 15.0125 3.60624C15.0125 3.77708 14.9521 3.92291 14.8313 4.04374L13.675 5.19999C13.5542 5.32083 13.4083 5.38125 13.2375 5.38125C13.0667 5.38125 12.9208 5.32083 12.8 5.19999ZM15 9.62499C14.8229 9.62499 14.6745 9.56489 14.5547 9.44468C14.4349 9.32446 14.375 9.17551 14.375 8.99781C14.375 8.82011 14.4349 8.67188 14.5547 8.55313C14.6745 8.43438 14.8229 8.37501 15 8.37501H16.625C16.8021 8.37501 16.9505 8.43511 17.0703 8.55533C17.1901 8.67554 17.25 8.82449 17.25 9.00219C17.25 9.17989 17.1901 9.32812 17.0703 9.44687C16.9505 9.56562 16.8021 9.62499 16.625 9.62499H15ZM8.99781 17.25C8.82011 17.25 8.67188 17.1901 8.55313 17.0704C8.43438 16.9505 8.37501 16.8021 8.37501 16.625V15C8.37501 14.8229 8.43511 14.6745 8.55533 14.5547C8.67554 14.4349 8.82449 14.375 9.00219 14.375C9.17989 14.375 9.32812 14.4349 9.44687 14.5547C9.56562 14.6745 9.62499 14.8229 9.62499 15V16.625C9.62499 16.8021 9.56489 16.9505 9.44468 17.0704C9.32446 17.1901 9.17551 17.25 8.99781 17.25ZM4.32501 5.19999L3.16875 4.06249C3.04375 3.93857 2.98125 3.78885 2.98125 3.61331C2.98125 3.43777 3.04538 3.28959 3.17364 3.16875C3.29122 3.04791 3.43542 2.98749 3.60624 2.98749C3.77708 2.98749 3.92291 3.04791 4.04374 3.16875L5.19999 4.32501C5.32083 4.44583 5.38125 4.59166 5.38125 4.7625C5.38125 4.93334 5.32083 5.07917 5.19999 5.19999C5.07272 5.31249 4.92424 5.36874 4.75455 5.36874C4.58485 5.36874 4.44167 5.31249 4.32501 5.19999ZM13.95 14.8313L12.8 13.675C12.6792 13.5517 12.6187 13.4052 12.6187 13.2356C12.6187 13.066 12.6792 12.9208 12.8 12.8C12.9146 12.6875 13.0578 12.6313 13.2297 12.6313C13.4016 12.6313 13.55 12.6875 13.675 12.8L14.8438 13.9375C14.9688 14.0583 15.0287 14.2067 15.0235 14.3825C15.0183 14.5584 14.9588 14.7084 14.845 14.8325C14.7209 14.9567 14.5709 15.0188 14.3951 15.0188C14.2192 15.0188 14.0708 14.9563 13.95 14.8313ZM1.37499 9.62499C1.19792 9.62499 1.04948 9.56489 0.929681 9.44468C0.809894 9.32446 0.75 9.17551 0.75 8.99781C0.75 8.82011 0.809894 8.67188 0.929681 8.55313C1.04948 8.43438 1.19792 8.37501 1.37499 8.37501H3C3.17709 8.37501 3.32553 8.43511 3.44531 8.55533C3.5651 8.67554 3.62499 8.82449 3.62499 9.00219C3.62499 9.17989 3.5651 9.32812 3.44531 9.44687C3.32553 9.56562 3.17709 9.62499 3 9.62499H1.37499ZM3.16875 14.8264C3.04791 14.7088 2.98749 14.5646 2.98749 14.3938C2.98749 14.2229 3.04791 14.0771 3.16875 13.9563L4.32501 12.8C4.43958 12.6875 4.58281 12.6313 4.75468 12.6313C4.92656 12.6313 5.07499 12.6885 5.19999 12.8031C5.32499 12.9281 5.38749 13.0766 5.38749 13.2484C5.38749 13.4203 5.32499 13.5687 5.19999 13.6937L4.06249 14.8313C3.93858 14.9563 3.78885 15.0188 3.61331 15.0188C3.43778 15.0188 3.28959 14.9546 3.16875 14.8264ZM9 13.5C7.75 13.5 6.6875 13.0625 5.8125 12.1875C4.9375 11.3125 4.5 10.25 4.5 9C4.5 7.75 4.9375 6.6875 5.8125 5.8125C6.6875 4.9375 7.75 4.5 9 4.5C10.25 4.5 11.3125 4.9375 12.1875 5.8125C13.0625 6.6875 13.5 7.75 13.5 9C13.5 10.25 13.0625 11.3125 12.1875 12.1875C11.3125 13.0625 10.25 13.5 9 13.5Z" fill="#090A0A"/>
</g>
</svg>
