<svg width="19" height="19" viewBox="0 0 19 19" fill="none" xmlns="http://www.w3.org/2000/svg">
<mask id="mask0_1263_13564" style="mask-type:alpha" maskUnits="userSpaceOnUse" x="0" y="0" width="19" height="19">
<rect width="18.209" height="18.209" fill="#D9D9D9"/>
</mask>
<g mask="url(#mask0_1263_13564)">
<path d="M8.15001 14.9999L7.05626 13.9937C5.58126 12.6312 4.28647 11.3155 3.17188 10.0468C2.05729 8.77805 1.5 7.42909 1.5 5.99993C1.5 4.85826 1.88333 3.9041 2.64999 3.13742C3.41667 2.37076 4.36667 1.98743 5.49999 1.98743C6.14583 1.98743 6.775 2.13638 7.3875 2.4343C8 2.73222 8.5375 3.19576 9 3.82493C9.50418 3.19576 10.05 2.73222 10.6375 2.4343C11.225 2.13638 11.8458 1.98743 12.5 1.98743C13.6333 1.98743 14.5833 2.37076 15.35 3.13742C16.1167 3.9041 16.5 4.85826 16.5 5.99993C16.5 7.42909 15.9438 8.77909 14.8313 10.0499C13.7188 11.3208 12.4208 12.6374 10.9375 13.9999L9.84999 14.9999C9.61249 15.2208 9.32916 15.3312 9 15.3312C8.67084 15.3312 8.38751 15.2208 8.15001 14.9999Z" fill="#090A0A"/>
</g>
</svg>
