<svg width="18" height="18" viewBox="0 0 18 18" fill="none" xmlns="http://www.w3.org/2000/svg">
<mask id="mask0_1263_13544" style="mask-type:alpha" maskUnits="userSpaceOnUse" x="0" y="0" width="19" height="19">
<rect width="18.209" height="18.209" fill="#D9D9D9"/>
</mask>
<g mask="url(#mask0_1263_13544)">
<path d="M2.74999 15C2.39583 15 2.09895 14.8802 1.85936 14.6406C1.61979 14.401 1.5 14.1042 1.5 13.75V10.8375C1.94584 10.7708 2.31979 10.5656 2.62187 10.2219C2.92396 9.87813 3.075 9.47084 3.075 9C3.075 8.52916 2.92396 8.11979 2.62187 7.77188C2.31979 7.42395 1.94584 7.22082 1.5 7.16248V4.24999C1.5 3.89582 1.61979 3.59896 1.85936 3.35938C2.09896 3.11979 2.39584 3 2.74999 3H15.25C15.6042 3 15.901 3.11979 16.1406 3.35938C16.3802 3.59896 16.5 3.89582 16.5 4.24999V13.75C16.5 14.1042 16.3802 14.401 16.1406 14.6406C15.901 14.8802 15.6042 15 15.25 15H2.74999Z" fill="#090A0A"/>
</g>
<mask id="mask1_1263_13544" style="mask-type:alpha" maskUnits="userSpaceOnUse" x="0" y="0" width="19" height="19">
<rect width="18.209" height="18.209" fill="#D9D9D9"/>
</mask>
<g mask="url(#mask1_1263_13544)">
<path d="M6.80628 11.7875L13.3875 10C13.5917 9.94169 13.7427 9.83649 13.8407 9.6844C13.9386 9.53231 13.9584 9.35419 13.9 9.15002C13.8417 8.94586 13.7302 8.80107 13.5657 8.71564C13.4011 8.63023 13.2209 8.61252 13.025 8.66252L11.125 9.16253L8.25627 6.39377C8.19377 6.33127 8.11774 6.28752 8.02816 6.26252C7.93857 6.23752 7.85003 6.23752 7.76253 6.26252C7.56669 6.31669 7.43544 6.42086 7.36878 6.57503C7.30212 6.72919 7.31879 6.89586 7.41879 7.07502L8.93754 9.75002L6.95004 10.2875L6.11877 9.61877C6.08127 9.59377 6.0344 9.57294 5.97815 9.55628C5.9219 9.53961 5.86877 9.54169 5.81877 9.56252C5.70211 9.60002 5.62295 9.66877 5.58129 9.76877C5.53961 9.86877 5.54794 9.97502 5.60628 10.0875L6.43752 11.6313C6.4792 11.6979 6.53337 11.7469 6.60003 11.7782C6.66669 11.8094 6.73544 11.8125 6.80628 11.7875Z" fill="white"/>
</g>
</svg>
