<svg width="19" height="19" viewBox="0 0 19 19" fill="none" xmlns="http://www.w3.org/2000/svg">
<mask id="mask0_1263_13568" style="mask-type:alpha" maskUnits="userSpaceOnUse" x="0" y="0" width="19" height="19">
<rect width="18.209" height="18.209" fill="#D9D9D9"/>
</mask>
<g mask="url(#mask0_1263_13568)">
<path d="M16.625 12.7125C16.4459 12.7125 16.2969 12.6531 16.1782 12.5343C16.0594 12.4156 16 12.2666 16 12.0875V7.46245L9.59377 10.9312C9.49794 10.9854 9.40107 11.0239 9.30316 11.0468C9.20524 11.0697 9.10002 11.0812 8.98752 11.0812C8.87502 11.0812 8.7719 11.0697 8.67815 11.0468C8.5844 11.0239 8.48961 10.9854 8.39379 10.9312L1.75002 7.2937C1.64169 7.23954 1.56148 7.1635 1.50941 7.06557C1.45732 6.96766 1.43127 6.86245 1.43127 6.74995C1.43127 6.63745 1.45732 6.53225 1.50941 6.43433C1.56148 6.33641 1.64169 6.26036 1.75002 6.2062L8.38752 2.58121C8.48336 2.52703 8.58024 2.48641 8.67815 2.45933C8.77607 2.43225 8.8792 2.4187 8.98752 2.4187C9.09586 2.4187 9.19899 2.43225 9.2969 2.45933C9.39482 2.48641 9.4917 2.52703 9.58752 2.58121L16.9188 6.5687C17.0271 6.6312 17.1094 6.71141 17.1657 6.80933C17.2219 6.90725 17.25 7.01245 17.25 7.12495V12.0875C17.25 12.2666 17.1907 12.4156 17.0719 12.5343C16.9532 12.6531 16.8042 12.7125 16.625 12.7125ZM8.98752 15.5687C8.8792 15.5687 8.77607 15.5572 8.67815 15.5343C8.58024 15.5114 8.48336 15.4729 8.38752 15.4187L4.26252 13.1687C4.06252 13.0562 3.90419 12.9031 3.78753 12.7093C3.67086 12.5156 3.61252 12.2999 3.61252 12.0624V8.93744L8.14379 11.4062C8.28128 11.477 8.41877 11.5447 8.55627 11.6093C8.69377 11.6739 8.83752 11.7062 8.98752 11.7062C9.13752 11.7062 9.2844 11.6729 9.42815 11.6062C9.5719 11.5395 9.71252 11.4708 9.85002 11.4L14.3625 8.93744V12.0624C14.3625 12.2999 14.3042 12.5156 14.1875 12.7093C14.0709 12.9031 13.9125 13.0562 13.7125 13.1687L9.58752 15.4187C9.4917 15.4729 9.39482 15.5114 9.2969 15.5343C9.19899 15.5572 9.09586 15.5687 8.98752 15.5687Z" fill="#090A0A"/>
</g>
</svg>
